HIERARCHY
ROOT Hips
{
	OFFSET -14.64140 90.27770 -84.91600
	CHANNELS 6 Xposition Yposition Zposition Zrotation Xrotation Yrotation
	JOINT Spine
	{
		OFFSET 0.00000 13.20850 -1.60436
		CHANNELS 3 Zrotation Xrotation Yrotation
		JOINT Spine1
		{
			OFFSET 0.00000 8.61716 0.00000
			CHANNELS 3 Zrotation Xrotation Yrotation
			JOINT Spine2
			{
				OFFSET 0.00000 8.61717 0.00000
				CHANNELS 3 Zrotation Xrotation Yrotation
				JOINT Spine3
				{
					OFFSET 0.00000 8.61717 0.00000
					CHANNELS 3 Zrotation Xrotation Yrotation
					JOINT Neck
					{
						OFFSET 0.00000 11.07920 1.10792
						CHANNELS 3 Zrotation Xrotation Yrotation
						JOINT Neck1
						{
							OFFSET 0.00000 7.08032 0.00000
							CHANNELS 3 Zrotation Xrotation Yrotation
							JOINT Head
							{
								OFFSET 0.00000 7.08031 0.00000
								CHANNELS 3 Zrotation Xrotation Yrotation
								End site
								{
									OFFSET 0.00000 0.00000 0.00000
								}
							}
						}
					}
					JOINT RightShoulder
					{
						OFFSET -0.01000 7.91373 5.19711
						CHANNELS 3 Zrotation Xrotation Yrotation
						JOINT RightArm
						{
							OFFSET -18.41580 0.00000 0.00000
							CHANNELS 3 Zrotation Xrotation Yrotation
							JOINT RightForeArm
							{
								OFFSET -29.11090 0.00000 0.00000
								CHANNELS 3 Zrotation Xrotation Yrotation
								JOINT RightHand
								{
									OFFSET -24.65040 0.00000 0.00000
									CHANNELS 3 Zrotation Xrotation Yrotation
									JOINT RightHandThumb1
									{
										OFFSET -5.35114 -0.85590 3.97906
										CHANNELS 3 Zrotation Xrotation Yrotation
										JOINT RightHandThumb2
										{
											OFFSET -4.52789 0.00000 0.00000
											CHANNELS 3 Zrotation Xrotation Yrotation
											JOINT RightHandThumb3
											{
												OFFSET -2.46976 0.00000 0.00000
												CHANNELS 3 Zrotation Xrotation Yrotation
												End site
												{
													OFFSET 0.00000 0.00000 0.00000
												}
											}
										}
									}
									JOINT RightHandIndex1
									{
										OFFSET -14.26970 0.00000 2.88139
										CHANNELS 3 Zrotation Xrotation Yrotation
										JOINT RightHandIndex2
										{
											OFFSET -5.48836 0.00000 0.00000
											CHANNELS 3 Zrotation Xrotation Yrotation
											JOINT RightHandIndex3
											{
												OFFSET -3.01859 0.00000 0.00000
												CHANNELS 3 Zrotation Xrotation Yrotation
												End site
												{
													OFFSET 0.00000 0.00000 0.00000
												}
											}
										}
									}
									JOINT RightHandMiddle1
									{
										OFFSET -14.26970 0.00000 -0.09147
										CHANNELS 3 Zrotation Xrotation Yrotation
										JOINT RightHandMiddle2
										{
											OFFSET -6.17441 0.00000 0.00000
											CHANNELS 3 Zrotation Xrotation Yrotation
											JOINT RightHandMiddle3
											{
												OFFSET -3.56743 0.00000 0.00000
												CHANNELS 3 Zrotation Xrotation Yrotation
												End site
												{
													OFFSET 0.00000 0.00000 0.00000
												}
											}
										}
									}
									JOINT RightHandRing1
									{
										OFFSET -12.69180 0.00000 -3.06433
										CHANNELS 3 Zrotation Xrotation Yrotation
										JOINT RightHandRing2
										{
											OFFSET -5.62556 0.00000 0.00000
											CHANNELS 3 Zrotation Xrotation Yrotation
											JOINT RightHandRing3
											{
												OFFSET -3.56744 0.00000 0.00000
												CHANNELS 3 Zrotation Xrotation Yrotation
												End site
												{
													OFFSET 0.00000 0.00000 0.00000
												}
											}
										}
									}
									JOINT RightHandPinky1
									{
										OFFSET -11.11390 0.00000 -6.03719
										CHANNELS 3 Zrotation Xrotation Yrotation
										JOINT RightHandPinky2
										{
											OFFSET -4.52789 0.00000 0.00000
											CHANNELS 3 Zrotation Xrotation Yrotation
											JOINT RightHandPinky3
											{
												OFFSET -2.46976 0.00000 0.00000
												CHANNELS 3 Zrotation Xrotation Yrotation
												End site
												{
													OFFSET 0.00000 0.00000 0.00000
												}
											}
										}
									}
								}
							}
						}
					}
					JOINT LeftShoulder
					{
						OFFSET 0.01000 7.91373 5.19711
						CHANNELS 3 Zrotation Xrotation Yrotation
						JOINT LeftArm
						{
							OFFSET 18.41580 0.00000 0.00000
							CHANNELS 3 Zrotation Xrotation Yrotation
							JOINT LeftForeArm
							{
								OFFSET 29.11090 0.00000 0.00000
								CHANNELS 3 Zrotation Xrotation Yrotation
								JOINT LeftHand
								{
									OFFSET 24.65040 0.00000 0.00000
									CHANNELS 3 Zrotation Xrotation Yrotation
									JOINT LeftHandThumb1
									{
										OFFSET 5.35114 -0.85590 3.97906
										CHANNELS 3 Zrotation Xrotation Yrotation
										JOINT LeftHandThumb2
										{
											OFFSET 4.52789 0.00000 0.00000
											CHANNELS 3 Zrotation Xrotation Yrotation
											JOINT LeftHandThumb3
											{
												OFFSET 2.46977 0.00000 0.00000
												CHANNELS 3 Zrotation Xrotation Yrotation
												End site
												{
													OFFSET 0.00000 0.00000 0.00000
												}
											}
										}
									}
									JOINT LeftHandIndex1
									{
										OFFSET 14.26970 0.00000 2.88139
										CHANNELS 3 Zrotation Xrotation Yrotation
										JOINT LeftHandIndex2
										{
											OFFSET 5.48836 0.00000 0.00000
											CHANNELS 3 Zrotation Xrotation Yrotation
											JOINT LeftHandIndex3
											{
												OFFSET 3.01859 0.00000 0.00000
												CHANNELS 3 Zrotation Xrotation Yrotation
												End site
												{
													OFFSET 0.00000 0.00000 0.00000
												}
											}
										}
									}
									JOINT LeftHandMiddle1
									{
										OFFSET 14.26970 0.00000 -0.09147
										CHANNELS 3 Zrotation Xrotation Yrotation
										JOINT LeftHandMiddle2
										{
											OFFSET 6.17440 0.00000 0.00000
											CHANNELS 3 Zrotation Xrotation Yrotation
											JOINT LeftHandMiddle3
											{
												OFFSET 3.56744 0.00000 0.00000
												CHANNELS 3 Zrotation Xrotation Yrotation
												End site
												{
													OFFSET 0.00000 0.00000 0.00000
												}
											}
										}
									}
									JOINT LeftHandRing1
									{
										OFFSET 12.69180 0.00000 -3.06433
										CHANNELS 3 Zrotation Xrotation Yrotation
										JOINT LeftHandRing2
										{
											OFFSET 5.62556 0.00000 0.00000
											CHANNELS 3 Zrotation Xrotation Yrotation
											JOINT LeftHandRing3
											{
												OFFSET 3.56744 0.00000 0.00000
												CHANNELS 3 Zrotation Xrotation Yrotation
												End site
												{
													OFFSET 0.00000 0.00000 0.00000
												}
											}
										}
									}
									JOINT LeftHandPinky1
									{
										OFFSET 11.11390 0.00000 -6.03719
										CHANNELS 3 Zrotation Xrotation Yrotation
										JOINT LeftHandPinky2
										{
											OFFSET 4.52789 0.00000 0.00000
											CHANNELS 3 Zrotation Xrotation Yrotation
											JOINT LeftHandPinky3
											{
												OFFSET 2.46976 0.00000 0.00000
												CHANNELS 3 Zrotation Xrotation Yrotation
												End site
												{
													OFFSET 0.00000 0.00000 0.00000
												}
											}
										}
									}
								}
							}
						}
					}
					JOINT pCube4
					{
						OFFSET 0.00000 10.91090 1.10792
						CHANNELS 3 Zrotation Xrotation Yrotation
						End site
						{
							OFFSET 0.00000 0.00000 0.00000
						}
					}
				}
			}
		}
	}
	JOINT RightUpLeg
	{
		OFFSET -9.98441 0.00000 0.00000
		CHANNELS 3 Zrotation Xrotation Yrotation
		JOINT RightLeg
		{
			OFFSET 0.00000 -42.11790 0.00000
			CHANNELS 3 Zrotation Xrotation Yrotation
			JOINT RightFoot
			{
				OFFSET 0.00000 -45.00020 -0.00001
				CHANNELS 3 Zrotation Xrotation Yrotation
				JOINT RightForeFoot
				{
					OFFSET 0.00000 -3.74820 0.00000
					CHANNELS 3 Zrotation Xrotation Yrotation
					JOINT RightToeBase
					{
						OFFSET 0.00000 0.06325 14.43120
						CHANNELS 3 Zrotation Xrotation Yrotation
						End site
						{
							OFFSET 0.00000 0.00000 0.00000
						}
					}
				}
			}
		}
	}
	JOINT LeftUpLeg
	{
		OFFSET 9.98441 0.00000 0.00000
		CHANNELS 3 Zrotation Xrotation Yrotation
		JOINT LeftLeg
		{
			OFFSET 0.00000 -42.11800 0.00000
			CHANNELS 3 Zrotation Xrotation Yrotation
			JOINT LeftFoot
			{
				OFFSET 0.00000 -45.00070 0.00000
				CHANNELS 3 Zrotation Xrotation Yrotation
				JOINT LeftForeFoot
				{
					OFFSET 0.00000 -3.74824 0.00000
					CHANNELS 3 Zrotation Xrotation Yrotation
					JOINT LeftToeBase
					{
						OFFSET 0.00000 0.06325 14.43110
						CHANNELS 3 Zrotation Xrotation Yrotation
						End site
						{
							OFFSET 0.00000 0.00000 0.00000
						}
					}
				}
			}
		}
	}
}
MOTION
Frames: 4
Frame Time: 0.050000
-0.03981217114197519 -0.023378867125188642 0.03925095977492821 0.028685592988585563 -0.014949327681034304 0.007755812648983982 -1.6859069094295505 1.0450302572468109 -1.0419144226747206 -0.8028727469895304 3.6200704088642817 0.4020966907897863 -1.1328923454973896 -1.8764162209376638 -0.7694677679896385 0.11372688305849701 -0.2367407601572412 -0.7910468656637557 0.5645944428670056 11.929200932232867 -2.1666542880355983 0.2226340356739037 -0.5780843067629792 -6.292171792156853 1.0012619984373705 -15.952213205232827 -0.5434599268449608 -5.504968658046094 2.0604919291874033 -15.921360259602038 69.9897282872448 -5.100207615626483 4.7119811405346885 31.005970738265106 9.572866795946435 89.92335750040405 20.39041650953127 -0.37814653125339603 -3.766990316121912 4.571921559556947 -0.09374727712767486 -1.6337926584787765 0.029159603273937733 0.042335497126942734 -56.22749259882509 -0.004940300421839965 0.019786830278617818 -56.22136608149975 -38.771012687102264 -0.008329327103271644 0.03704918739504143 -0.025988866627919303 0.0045390309191096255 0.04155307280487659 0.012773746456736797 -0.0010664343010101194 -0.03211209375930873 -36.684008775639576 -0.011306470377133912 0.00475918862459846 0.0009963861347768652 -0.026195579544230994 -0.006260459102267809 -0.013157402470646057 -0.014784718926428457 0.03463793901341817 -19.716112217717594 -0.023443729168924073 0.007340607816958422 0.008592345647504702 0.014806142561268892 0.02977570413258691 0.018917405386459182 -0.023663466473146145 -0.04530476434080351 24.068066771394413 0.025793916427759963 -0.006770320101244606 28.868991082629748 -0.026703800237597688 -0.027868242575615338 28.858539416649347 0.0019175420438294424 0.039772714204286255 5.422346610749174 1.5120718865447074 13.705576083963253 -67.45060256150872 17.296075729257094 -4.496462483274344 4.110251875739252 -5.332549286740852 -78.30270945031918 -13.013369052696593 -0.7153543224433188 0.10780954583423868 -0.4402922731206222 0.047123153615826946 -8.124986758951623 0.02090474201489056 -0.014869470348315485 44.5614400515838 -0.032364616345993205 0.049502813035169034 44.573195754586706 12.467933832792129 -0.04212432109723449 -0.03646294050256002 0.01487218139624308 0.01028728176765452 -0.044777552585149094 -0.028470473446594004 0.01678423324534779 -0.0379367968552765 11.111720246430398 0.023694426899638164 -0.017974156767896238 0.004549393535419464 -0.03542736851500512 -0.008910072760963417 -0.011159531665156786 0.009134712295749678 -0.035085979273367734 4.753335572241132 -0.012758851473346084 0.031189798096427798 0.0376211083476543 -0.008316110642207278 0.01004889071215373 -0.03593979998319607 -0.022065318510165067 -0.010366362292149727 -5.61694895392133 0.019740787996338 0.007239937944330477 -6.7127159587010885 0.047791909689203604 -0.03126733532127667 -6.693641470893215 0.0458735395623159 0.03177606495525096 0.016788057972167893 0.012438319402665158 0.04052808776966931 8.027938661681706 3.543789658047793 -19.227353413721602 0.039211148646387715 10.440725817449447 0.02088725036520779 -5.578587628735854 -15.628467510470543 3.173087991878676 0.022360332642256606 0.034560104522794906 -0.04870009430889919 0.04915095701178424 4.693225876403266 -0.047275393468334724 12.475859708401583 -8.281189155994078 6.8443064391334 -0.030827635499082514 46.42321216173817 -0.018447963748709596 -4.372532072061218 -14.730836834902819 -3.7951466594509697 0.03723967707136439 0.04174879063552542 -0.0013788776688271412 -0.008279777022595804 -10.768066674278636 0.010136029874132105 
0.04737697807630496 -0.012669078628875109 -0.019905488470920857 -0.0150940073621964 -0.01314071761046746 -0.0114676573680916 -1.7972972719812963 0.9619844951626804 -0.9747644584622868 -0.7801881549512653 3.5378215929720658 0.36102336831725157 -1.1691904312796657 -1.9520205826455932 -0.9094746084174979 0.029993766452833113 -0.2975175574764505 -0.7865017928895398 0.42174702714923595 12.13533415084548 -1.8093135851309547 0.24030883898704034 -0.47246751729410735 -5.487638537535274 0.8423441812640458 -15.697015539152614 -0.47918328718380104 -5.440408097423583 2.0212496797602677 -15.862090291878667 69.95609979424651 -4.317276932735317 4.426712483505728 31.384486191564566 9.584200779419202 89.51183493213018 20.41868798159389 -0.3879676531801764 -3.712614662996024 4.518081807296249 -0.11749039570073061 -1.6016535772970883 0.0437105291479304 -0.02883723494613857 -56.28314614389149 0.015250604117455649 -0.011761152690543751 -56.228808407399136 -38.720341740006944 -0.035521908368084616 -0.0127469993333136 -0.036673004490440704 0.002740079835192021 -0.024862270047773475 -0.018633790288889084 0.03345316011236041 0.028408041493515553 -36.70118228080769 0.012307418301730683 -0.02517044642737463 -0.035539184171180474 0.023530204481823944 0.005763816845969435 0.016668536942382465 0.04999226060054517 -0.005760766451443749 -19.760239086610703 0.009807182282143494 -0.040602546696571304 0.0009880813522538455 0.023569209881416087 0.020451149700535992 0.028792488644624383 0.010037489699256845 -0.025211884155932257 24.080347313108724 -0.007391028525782331 0.002558031815146614 28.89667660840344 0.02900148234246631 0.026658032871815254 28.83786475415831 0.005421693751572392 0.026964946115539044 5.85034423031077 1.5846701913416135 13.788678334039886 -67.26400523205216 15.53177629150913 -5.933982893901459 3.6191228812592304 -5.149986649932432 -79.97779202107674 -11.656799025929345 -0.2807798969265416 -0.3212249796120947 -0.4893947491693846 0.03656593121702631 -8.076975215186755 0.027474935455534432 -0.01493147132302088 44.58600765346244 0.04851862083706314 0.02031699933680424 44.591683341155395 12.418090171553922 -0.036910711438512496 -0.02703682808689998 0.008301775190359925 -0.031068187262321446 0.04838496155689625 -0.04576240729090446 0.030147788349955615 0.022131480359730896 11.102019194828499 0.04631600761019548 0.046764505094673614 -0.0038475173541538416 -0.0077771658313400965 0.0244469437986626 -0.03475508310759262 -0.02947945267390129 -0.028951738224748003 4.7532731895951725 0.03136175827841897 0.006236053838711711 -0.03647359743443239 -0.005472808797911484 0.0059345186620805915 0.005678866716104865 0.017323882878160717 0.04818110071365499 -5.643139180669509 -0.04652793526289538 -0.003671723755199016 -6.682062422051437 0.0158599412349327 -0.015515505059357115 -6.687763430007392 -0.010723942197377859 -0.022142254498480715 0.031903046309715945 0.024603771644779 0.030704817471847425 8.033654036881671 3.527200560791598 -19.23667217855709 -0.048484121889033914 10.382020584368549 0.014864798239371778 -5.670724882795671 -15.67415985345734 3.192295828029073 0.04419325625608015 0.017185278006452438 -0.006667415011921578 0.008016873150148986 4.669599106467902 0.008027297547426843 12.466725922871282 -8.22820606974821 6.89933351875532 -0.006578071406696254 46.37552629644563 0.022664139313148767 -4.285053615197285 -14.720098502852244 -3.8539737646882446 -0.00831113571353167 0.014937994864050227 5.191192393620962e-06 0.007395824300047512 -10.749682246566021 -0.03344215487684112 
-0.03281404171312834 -0.0018487837764020847 -0.01918850529004655 0.028556399684698544 0.01975147433443678 -0.023448305794732137 -1.9294156471717083 0.7917369142118484 -1.0089774719046776 -0.876588313521394 3.5404862336183847 0.3779362760339501 -1.1493471406077653 -2.0440675999834297 -1.0366208268965593 -0.018447818399156976 -0.26255369302630654 -0.7481702731353141 0.22637532136007113 12.282586863263809 -1.4299893505036494 0.17597468847375933 -0.301731009179264 -4.492742183000251 0.6420596694885239 -15.406151910056153 -0.38857649308850484 -5.53962845290042 2.0412817225762567 -15.707626463214295 69.7482094757075 -3.8520743768014025 4.338952766676308 31.34785095508088 9.318660803543906 89.80832634316752 20.557934446133956 -0.4414841400002254 -3.735351524532753 4.535135278322322 -0.1375696206155198 -1.5886409436916948 0.036971997934756654 -0.010699295269358021 -56.261191703613385 0.009381258285713949 -0.0028414073099115376 -56.20386476651083 -38.76242791275777 0.049631292909647524 0.006001602263374392 -0.039715941764860846 -0.039693322095891326 0.011158158102955852 -0.030402981790601663 0.0024538455010834365 0.0331926694322198 -36.737723004306154 0.001780762549209103 0.01414355548317598 -0.008940059608113119 0.04835680989265766 0.04343287898939606 -0.00901830463621588 -0.025222550455820548 -0.005477095766411402 -19.794962878214267 -0.017030505107551674 -0.017930423424332997 0.03228350785782442 0.018183585384880893 0.029494222536168214 -0.046567791070748064 0.03774196916393781 0.02394390380292895 24.01824851793578 -0.029317270302580776 -0.047684844530800234 28.836155061252533 -0.04585060547938633 0.006082706533152389 28.869985688759332 0.0455308075937358 0.029210035960415822 6.392291969206741 1.6354510026906144 13.850967965743688 -66.97592558909382 14.003422326004998 -7.404980268636059 3.2113618939721253 -5.3359727875442875 -82.5709275032717 -10.325051488602487 -0.4233503254610824 -0.3416350576123121 -0.4556018318867727 0.0826308967455535 -8.074409545212879 0.006154010834570054 -0.031914345603401305 44.518799105645556 -0.015038425460643979 0.020738027123125502 44.54291862568585 12.500958945116762 -0.038643273666636904 0.017974127830979507 -0.012414453246510575 -0.02467438465931374 0.034976033895843334 0.0404528959336578 -0.0481149126319377 0.034456763845838456 11.08306648212703 0.012610240312196992 -0.048215087740876184 -0.04476018830632835 0.0003740872132216601 0.007582525604525276 0.025477011722524076 0.04521679936196865 0.0320813281243539 4.818512810536447 0.04331573591720906 0.02096928245006113 -0.0002329205061532573 -0.014035509383933437 -0.04711377680769229 -0.0258797275234742 -0.0010612737547506 -0.035549031027361566 -5.5660746363724725 0.03780965978584726 -0.03532841241258936 -6.697902667593706 -0.022846901103868972 0.02574117412893524 -6.7332236183292 0.040488256901052365 0.043524347275283884 -0.03613775411723973 -0.04262780592072467 -0.02759652033534997 8.072312789417696 3.48835288818309 -19.219063367357606 0.04122978310882367 10.40902914542451 0.022567947777646355 -5.639697945489396 -15.70221118784823 3.2015301553632223 -0.043647802557350006 -0.03048620104666876 0.04609102354653607 -0.03088618763087463 4.716422489653043 0.02105917583037901 12.484709262281978 -8.268943593089835 6.899845125721259 0.013233690463074085 46.40134790084352 -0.008369180558023675 -4.313829400820866 -14.739339271824203 -3.813662135472157 -0.018709325075950606 -0.02550142654919592 -0.019150599953621564 0.009945913738568965 -10.748636236701115 -0.006617742334993209 
0.00798351937861124 0.013718827503137352 -0.0026807963067857644 0.020943085241487285 0.00437029555112321 0.04218338516825672 -2.062959675142521 0.5371280176893748 -0.9836301309812862 -0.8240324486239782 3.563660849338574 0.3563502586669055 -1.1436380127669683 -2.061417427490441 -1.0812221537401456 -0.04542057962247613 -0.21734227055457067 -0.7902286516053298 0.07409117490862317 12.551365509022899 -1.003336741676343 0.13340069154437684 -0.10394532561602365 -3.6337677365833656 0.5024785823186876 -15.114955130609035 -0.270999104478086 -5.492883635793911 2.054150839668019 -15.660282947548252 69.35696057832581 -3.502455453234477 4.635007519003314 30.873703417144664 8.778682378885179 91.1499366103016 20.65941876821243 -0.42532673637999724 -3.9452814095511073 4.516000008120298 -0.11366595657048112 -1.5582484262992142 -0.04433011353916922 0.003993403061413014 -56.23009575761557 -0.007866409452978812 -0.0411593354289028 -56.26955807546115 -38.81469115194393 -0.04262664296998834 0.045620797572389515 0.0007456777082299097 -0.0122017642396341 0.027853138149923493 -0.022922300204309038 0.01669270090735065 -0.030477059091703614 -36.697392032173 0.003309690229207625 -0.03426830314621964 -0.016779557477363996 0.025117408877273983 0.04620492430008144 -0.009901405113184908 0.03038680104178321 0.021387792842144045 -19.715138272847128 -0.006374249234176283 -0.04323302297264325 -0.044898669029518126 0.01228013027563416 -0.03561246293203593 0.01791773755835566 0.0002581307905442239 -0.03435711320983003 24.01686629694141 0.0025894899623726984 0.0027019264975546857 28.904425965277515 0.03987525100989307 0.012436813617990207 28.850590269499303 -0.0296790120327846 -0.01667835332098569 6.828273903806001 1.737249833519055 13.865501286769286 -66.64471840990916 13.157512373524268 -8.862157610975588 3.9388498522718973 -6.122826721203756 -86.69361963123215 -8.951154079047008 -0.6361811049064195 -0.4227745759892451 -0.43559820097866175 0.04191529119370847 -8.088992701081494 0.010354252486334176 -0.00048494461904582785 44.59360315631257 -0.03925651240482876 0.009894916732601672 44.54541718944681 12.473276837815716 -0.012437628243581885 0.010915480793855565 -0.010774763789087146 0.013517104687035656 0.029954603455771778 -0.037460631112704326 0.03280356120637434 -0.02002347811874192 11.10032660226182 0.000973846897020563 -0.032850829942603986 -0.003668489781315867 -0.04635990635318716 -0.003637990440734914 -0.00355838024334565 0.0132613905961484 -0.02490363988858426 4.80006733587598 -0.041141869043421424 -0.020096862056100392 0.006328705276336369 -0.03363095125782991 -0.025196675166424765 0.01901629267737345 -0.016726757262960412 -0.04953711676817011 -5.554631827462351 0.010545882476607947 0.041008403380294406 -6.707276859533356 0.040954488511887925 -0.011379618980677181 -6.737489420193027 0.028032855897787576 0.03314131589756876 0.04709631097501195 0.0014624284461311045 -0.034720817855899484 8.045226032499716 3.453072399068756 -19.185799495936692 0.023977158622487955 10.365850583289014 0.057767528848843605 -5.627968527561306 -15.683291288887768 3.183421060837871 -0.015866321030809274 -0.047333513676778884 0.016669264085467313 0.02341528367274204 4.706660168556468 -0.02695850111358692 12.413574943504294 -8.258641038372868 6.896949001918271 0.040885101841224715 46.399882013045634 -0.04006346575023766 -4.294191636539941 -14.704471418198697 -3.8811116754628903 -0.04006771971915791 -0.029908228063468986 -0.0014451645144263699 0.0039312719672590195 -10.766767921940316 0.023574013382705112 
